# This file uses centimeters as units for non-parametric coordinates.

mtllib rock_asset.mtl
g default
v 0.940157 0.036551 -0.237940
v 1.000000 -0.000000 -0.219533
v 1.000000 -0.504707 -0.839991
v 0.551255 -0.118341 -0.839991
v 0.528974 0.287695 0.738228
v 0.128558 -0.118341 -0.839991
v -0.500000 -0.047858 -0.566031
v -0.500000 0.135333 0.146015
v 0.142012 0.278332 0.701835
v 0.008078 -0.916176 0.415870
v 0.517084 -0.916176 0.839991
v 0.328304 0.161399 0.839991
v -0.500000 -0.188885 0.098688
v 1.000000 -0.894260 -0.839991
v 1.000000 0.000000 0.839991
v 1.000000 -0.916176 0.839991
v 1.000000 -0.916176 -0.816000
v 0.669372 0.201943 0.839991
v -0.500000 -0.225556 -0.839991
v 0.223290 -0.916176 -0.499622
v 0.100287 -0.916176 -0.755717
v 0.140101 -0.827318 -0.563007
v -0.500000 -0.454022 -0.839991
v -0.212553 -0.916176 -0.839991
v 0.095187 -0.916176 -0.839991
v 0.196817 -0.595394 -0.839991
vt 0.008077 0.001874
vt 0.116235 0.001874
vt 0.256366 0.174143
vt 0.256366 0.468317
vt 0.001992 0.468317
vt 0.001992 0.008535
vt 0.266514 0.169032
vt 0.223509 0.001874
vt 0.312435 0.468317
vt 0.336244 0.440063
vt 0.291186 0.235500
vt 0.291186 0.164396
vt 0.315857 0.217902
vt 0.291186 0.140998
vt 0.380250 0.140998
vt 0.868286 0.641264
vt 0.958305 0.628123
vt 0.907442 0.825821
vt 0.858105 0.901885
vt 0.794672 0.901885
vt 0.666356 0.553199
vt 0.666356 0.435443
vt 0.965542 0.435443
vt 0.998008 0.473801
vt 0.666356 0.901885
vt 0.629636 0.030128
vt 0.743800 0.301159
vt 0.635823 0.468317
vt 0.518462 0.468317
vt 0.343944 0.392253
vt 0.343944 0.194555
vt 0.522197 0.040233
vt 0.343944 0.468317
vt 0.573921 0.001874
vt 0.668617 0.001874
vt 0.320496 0.472570
vt 0.405939 0.472570
vt 0.407355 0.495968
vt 0.441507 0.567073
vt 0.657158 0.479231
vt 0.657158 0.939013
vt 0.523078 0.939013
vt 0.381754 0.821257
vt 0.001992 0.774320
vt 0.054406 0.475134
vt 0.188487 0.475134
vt 0.188487 0.729508
vt 0.096689 0.785577
vt 0.837717 0.431800
vt 0.774284 0.431800
vt 0.744516 0.257283
vt 0.744516 0.139922
vt 0.851789 0.015329
vt 0.959948 0.015329
vt 0.876968 0.238331
vt 0.966033 0.266548
vt 0.966033 0.351991
vt 0.966033 0.015329
vt 0.966033 0.230981
vt 0.941362 0.254078
vn 0.555421 0.645095 -0.524747
vn 0.555421 0.645095 -0.524748
vn 0.555421 0.645095 -0.524748
vn 0.555421 0.645095 -0.524748
vn 0.000000 0.968462 -0.249161
vn 0.000000 0.968462 -0.249161
vn 0.000000 0.968462 -0.249161
vn -0.001532 0.967607 -0.252457
vn -0.004870 0.965698 -0.259623
vn 0.000000 0.968462 -0.249161
vn 0.000000 0.968462 -0.249161
vn -0.636151 -0.111447 0.763473
vn -0.636151 -0.111447 0.763473
vn -0.636151 -0.111447 0.763473
vn -0.636151 -0.111447 0.763473
vn -0.636151 -0.111447 0.763473
vn -0.636151 -0.111447 0.763473
vn 1.000000 0.000000 0.000000
vn 1.000000 0.000000 0.000000
vn 1.000000 0.000000 0.000000
vn 1.000000 0.000000 0.000000
vn 1.000000 0.000000 0.000000
vn 1.000000 0.000000 0.000000
vn -0.083484 0.702289 0.706980
vn -0.083484 0.702289 0.706980
vn -0.083484 0.702289 0.706980
vn -0.083484 0.702289 0.706980
vn 0.000000 0.000000 1.000000
vn 0.000000 0.000000 1.000000
vn 0.000000 0.000000 1.000000
vn 0.000000 0.000000 1.000000
vn 0.000000 0.000000 1.000000
vn 0.521247 0.853406 0.000000
vn 0.521247 0.853406 0.000000
vn 0.521247 0.853406 0.000000
vn 0.521247 0.853406 0.000000
vn 0.521247 0.853406 0.000000
vn -0.141662 0.830509 -0.538690
vn 0.794793 0.471783 -0.381740
vn 0.794793 0.471783 -0.381740
vn 0.794793 0.471783 -0.381740
vn -0.839858 -0.522369 0.147547
vn -0.839858 -0.522368 0.147547
vn -0.839858 -0.522369 0.147547
vn -0.839858 -0.522368 0.147547
vn 0.951718 -0.301523 -0.057595
vn 0.951718 -0.301523 -0.057595
vn 0.951718 -0.301523 -0.057595
vn 0.951718 -0.301523 -0.057595
vn -0.264913 -0.711935 -0.650362
vn -0.264913 -0.711935 -0.650362
vn -0.264913 -0.711935 -0.650362
vn -0.264913 -0.711935 -0.650362
vn -0.264913 -0.711935 -0.650362
vn -1.000000 -0.000000 0.000000
vn -1.000000 -0.000000 0.000000
vn -1.000000 -0.000000 0.000000
vn -1.000000 -0.000000 0.000000
vn -1.000000 -0.000000 0.000000
vn 0.000000 -1.000000 -0.000000
vn 0.000000 -1.000000 -0.000000
vn 0.000000 -1.000000 -0.000000
vn 0.000000 -1.000000 -0.000000
vn 0.000000 -1.000000 -0.000000
vn 0.000000 -1.000000 -0.000000
vn 0.000000 -1.000000 -0.000000
vn 0.000000 -1.000000 -0.000000
vn 0.000000 0.000000 -1.000000
vn 0.000000 0.000000 -1.000000
vn 0.000000 0.000000 -1.000000
vn 0.000000 0.000000 -1.000000
vn 0.000000 0.000000 -1.000000
vn 0.000000 0.000000 -1.000000
vn 0.000000 0.000000 -1.000000
vn 0.000000 0.000000 -1.000000
vn 0.000000 0.000000 -1.000000
s off
g pCube18
usemtl initialShadingGroup
f 1/7/1 2/3/2 3/2/3 4/8/4
s 1
f 5/26/5 1/27/6 4/28/7 6/29/8 7/30/9 8/31/10 9/32/11
s off
f 10/21/12 11/22/13 12/23/14 9/24/15 8/17/16 13/16/17
f 14/1/18 3/2/19 2/3/20 15/4/21 16/5/22 17/6/23
f 9/32/24 12/34/25 18/35/26 5/26/27
f 12/44/28 11/45/29 16/46/30 15/47/31 18/48/32
f 18/9/33 15/4/34 2/3/35 1/7/36 5/10/37
s 1
f 19/33/38 7/30/9 6/29/8
s off
f 20/11/39 21/12/40 22/13/41
f 23/20/42 24/25/43 10/21/44 13/16/45
f 21/12/46 25/14/47 26/15/48 22/13/49
f 26/55/50 14/54/51 17/58/52 20/59/53 22/60/54
f 13/16/55 8/17/56 7/18/57 19/19/58 23/20/59
f 24/36/60 25/37/61 21/38/62 20/39/63 17/40/64 16/41/65 11/42/66 10/43/67
f 23/49/68 19/50/69 6/51/70 4/52/71 3/53/72 14/54/73 26/55/74 25/56/75 24/57/76
