# This file uses centimeters as units for non-parametric coordinates.

mtllib rock_asset_long.mtl
g default
v 3.259533 -0.008946 -2.188758
v 3.311615 -0.040757 -2.157832
v 3.311615 -0.480004 -3.200253
v 2.921071 -0.143749 -3.200253
v 2.901680 0.209625 -0.548713
v 2.553197 -0.143749 -3.200253
v 2.006162 -0.082408 -2.739978
v 2.006162 0.077024 -1.543681
v 2.564906 0.201476 -0.609857
v 2.448343 -0.838106 -1.090302
v 2.891332 -0.838106 -0.377744
v 2.727037 0.099709 -0.377744
v 2.006162 -0.205144 -1.623195
v 3.311615 -0.040757 -0.377744
v 3.311615 -0.838106 -0.377744
v 3.311615 -0.838106 -3.200253
v 3.023868 0.134994 -0.377744
v 2.256328 -0.838106 -3.200253
v 2.006162 -0.237058 -3.200253
v 2.006162 -0.435893 -3.200253
vt 0.251688 0.170942
vt 0.251688 0.459706
vt 0.001992 0.459706
vt 0.001992 0.001841
vt 0.114134 0.001841
vt 0.306726 0.459706
vt 0.261650 0.165925
vt 0.330097 0.431971
vt 0.219435 0.001841
vt 0.870672 0.594816
vt 0.959035 0.581917
vt 0.909108 0.775979
vt 0.860678 0.850645
vt 0.798411 0.850645
vt 0.672455 0.508371
vt 0.672455 0.392780
vt 0.966139 0.392780
vt 0.998008 0.430433
vt 0.672455 0.850645
vt 0.614729 0.029575
vt 0.726793 0.295621
vt 0.620801 0.459705
vt 0.505599 0.459705
vt 0.334291 0.385039
vt 0.334291 0.190977
vt 0.509265 0.039493
vt 0.334291 0.459705
vt 0.560038 0.001840
vt 0.652993 0.001840
vt 0.312789 0.464041
vt 0.643260 0.464041
vt 0.643260 0.921906
vt 0.511645 0.921906
vt 0.372920 0.806315
vt 0.731096 0.376559
vt 0.782547 0.082876
vt 0.914161 0.082876
vt 0.914161 0.332572
vt 0.824051 0.387609
vt 0.093479 0.876765
vt 0.031212 0.876765
vt 0.001992 0.705456
vt 0.001992 0.590254
vt 0.107293 0.467952
vt 0.219435 0.467952
vt 0.219435 0.798423
vn 0.621551 0.721902 -0.304189
vn 0.621551 0.721902 -0.304189
vn 0.621551 0.721902 -0.304189
vn 0.621551 0.721902 -0.304189
vn 0.000000 0.991236 -0.132103
vn 0.000000 0.991236 -0.132103
vn 0.000000 0.991236 -0.132103
vn -0.002626 0.990819 -0.135169
vn -0.003333 0.990704 -0.135993
vn 0.000000 0.991236 -0.132103
vn 0.000000 0.991236 -0.132103
vn -0.840014 -0.147161 0.522226
vn -0.840014 -0.147161 0.522226
vn -0.840014 -0.147161 0.522226
vn -0.840014 -0.147161 0.522226
vn -0.840014 -0.147161 0.522226
vn -0.840014 -0.147161 0.522226
vn 1.000000 0.000000 0.000000
vn 1.000000 0.000000 0.000000
vn 1.000000 0.000000 0.000000
vn 1.000000 0.000000 0.000000
vn 1.000000 0.000000 0.000000
vn -0.104823 0.881798 0.459832
vn -0.104823 0.881798 0.459832
vn -0.104823 0.881798 0.459832
vn -0.104823 0.881798 0.459832
vn -0.000000 0.000000 1.000000
vn -0.000000 0.000000 1.000000
vn -0.000000 0.000000 1.000000
vn -0.000000 0.000000 1.000000
vn -0.000000 0.000000 1.000000
vn 0.521247 0.853406 0.000000
vn 0.521247 0.853406 0.000000
vn 0.521247 0.853406 0.000000
vn 0.521247 0.853406 0.000000
vn 0.521247 0.853406 0.000000
vn 0.000000 -1.000000 -0.000000
vn 0.000000 -1.000000 -0.000000
vn 0.000000 -1.000000 -0.000000
vn 0.000000 -1.000000 -0.000000
vn 0.000000 -1.000000 -0.000000
vn -0.159616 0.935770 -0.314415
vn -0.846627 -0.526579 0.077047
vn -0.846627 -0.526579 0.077047
vn -0.846627 -0.526579 0.077047
vn -0.846627 -0.526579 0.077047
vn -1.000000 -0.000001 0.000000
vn -1.000000 -0.000001 0.000000
vn -1.000000 -0.000001 0.000000
vn -1.000000 -0.000001 0.000000
vn -1.000000 -0.000001 0.000000
vn 0.000000 0.000000 -1.000000
vn 0.000000 0.000000 -1.000000
vn 0.000000 0.000000 -1.000000
vn 0.000000 0.000000 -1.000000
vn 0.000000 0.000000 -1.000000
vn 0.000000 0.000000 -1.000000
vn 0.000000 0.000000 -1.000000
s off
g pCube18
usemtl initialShadingGroup
f 1/7/1 2/1/2 3/5/3 4/9/4
s 1
f 5/20/5 1/21/6 4/22/7 6/23/8 7/24/9 8/25/10 9/26/11
s off
f 10/15/12 11/16/13 12/17/14 9/18/15 8/11/16 13/10/17
f 2/1/18 14/2/19 15/3/20 16/4/21 3/5/22
f 9/26/23 12/28/24 17/29/25 5/20/26
f 12/35/27 11/36/28 15/37/29 14/38/30 17/39/31
f 17/6/32 14/2/33 2/1/34 1/7/35 5/8/36
f 18/30/37 16/31/38 15/32/39 11/33/40 10/34/41
s 1
f 19/27/42 7/24/9 6/23/8
s off
f 20/14/43 18/19/44 10/15/45 13/10/46
f 13/10/47 8/11/48 7/12/49 19/13/50 20/14/51
f 20/40/52 19/41/53 6/42/54 4/43/55 3/44/56 16/45/57 18/46/58
