# This file uses centimeters as units for non-parametric coordinates.

mtllib rock_asset_lastone.mtl
g default
v 3.259533 0.231881 -2.188758
v 3.774616 -0.583663 -1.524661
v 3.311615 -0.610763 -3.200253
v 2.921071 -0.009260 -3.200253
v 2.901680 0.622867 -0.548713
v 2.553197 -0.009260 -3.200253
v 2.006162 0.100469 -2.739978
v 2.006162 0.385667 -1.543681
v 2.050892 0.455484 -0.726052
v 2.076528 -1.134830 -0.977234
v 2.621701 -1.251348 -0.377744
v 2.457406 0.426246 -0.377744
v 1.704003 -0.361863 -1.760536
v 3.311615 0.174977 -0.377744
v 3.311615 -1.251348 -0.377744
v 3.311615 -1.251348 -3.200253
v 3.023868 0.489366 -0.377744
v 2.256328 -1.251348 -3.200253
v 2.006162 -0.176174 -3.200253
v 2.006162 -0.531856 -3.200253
vt 0.264097 0.180806
vt 0.119925 0.298205
vt 0.115134 0.001993
vt 0.221468 0.001993
vt 0.309615 0.500957
vt 0.254037 0.500957
vt 0.333216 0.470733
vt 0.001891 0.500957
vt 0.001891 0.001993
vt 0.691185 0.502812
vt 0.563993 0.502812
vt 0.584591 0.109825
vt 0.721237 0.248298
vt 0.865728 0.065421
vt 0.853385 0.209962
vt 0.802968 0.421444
vt 0.754063 0.502812
vt 0.563993 0.003847
vt 0.860559 0.003847
vt 0.337667 0.208107
vt 0.559239 0.322144
vt 0.499406 0.500956
vt 0.434373 0.500956
vt 0.337667 0.419589
vt 0.495978 0.032216
vt 0.345575 0.063566
vt 0.337667 0.500956
vt 0.417439 0.001992
vt 0.517578 0.001992
vt 0.760884 0.499044
vt 0.947438 0.499044
vt 0.947438 0.998008
vt 0.825475 0.998008
vt 0.729099 0.892030
vt 0.287579 0.803027
vt 0.316623 0.506462
vt 0.438586 0.506462
vt 0.438586 0.758608
vt 0.387718 0.814186
vt 0.535794 0.739095
vt 0.472917 0.739095
vt 0.443410 0.642390
vt 0.443410 0.577357
vt 0.549744 0.508317
vt 0.662987 0.508317
vt 0.662987 0.694871
vn 0.861569 0.410967 -0.298001
vn 0.861569 0.410967 -0.298001
vn 0.861569 0.410967 -0.298001
vn 0.861569 0.410967 -0.298001
vn -0.030399 0.978117 -0.205823
vn -0.015200 0.975627 -0.218909
vn 0.000000 0.972739 -0.231901
vn -0.008923 0.970257 -0.241914
vn -0.010278 0.969864 -0.243431
vn -0.827878 -0.039545 0.559513
vn -0.709732 -0.094904 0.698050
vn -0.709732 -0.094904 0.698050
vn -0.848552 -0.027932 0.528375
vn 0.959060 -0.272830 0.075951
vn 0.959060 -0.272830 0.075951
vn 0.959060 -0.272830 0.075951
vn 0.959060 -0.272830 0.075951
vn 0.959060 -0.272830 0.075951
vn -0.198739 0.859128 0.471595
vn -0.198739 0.859128 0.471595
vn -0.198739 0.859128 0.471595
vn -0.198739 0.859128 0.471595
vn 0.000000 0.000000 1.000000
vn 0.000000 0.000000 1.000000
vn 0.000000 0.000000 1.000000
vn 0.000000 0.000000 1.000000
vn 0.000000 0.000000 1.000000
vn 0.806662 0.590995 -0.004629
vn 0.806662 0.590995 -0.004629
vn 0.806662 0.590995 -0.004629
vn 0.806662 0.590995 -0.004629
vn 0.806662 0.590995 -0.004629
vn -0.052583 -0.998593 0.006807
vn -0.052583 -0.998593 0.006807
vn -0.052583 -0.998593 0.006807
vn -0.052583 -0.998593 0.006807
vn -0.052583 -0.998593 0.006807
vn -0.253013 0.829212 -0.498390
vn -0.902689 -0.421654 -0.085797
vn -0.902689 -0.421654 -0.085797
vn -0.902689 -0.421654 -0.085797
vn -0.902689 -0.421654 -0.085797
vn -0.954351 0.261286 -0.144718
vn -0.954351 0.261286 -0.144718
vn -0.954351 0.261286 -0.144718
vn -0.954351 0.261286 -0.144718
vn -0.954351 0.261286 -0.144718
vn 0.000000 0.000000 -1.000000
vn 0.000000 0.000000 -1.000000
vn 0.000000 0.000000 -1.000000
vn 0.000000 0.000000 -1.000000
vn 0.000000 0.000000 -1.000000
vn 0.000000 0.000000 -1.000000
vn 0.000000 0.000000 -1.000000
vn -0.048581 0.980573 -0.190043
vn -0.048581 0.980573 -0.190043
vn -0.959481 0.058298 0.275677
vn -0.959481 0.058298 0.275677
s off
g pCube18
usemtl initialShadingGroup
f 1/1/1 2/2/2 3/3/3 4/4/4
s 1
f 8/20/5 1/21/6 4/22/7 6/23/8 7/24/9
s 2
f 10/12/10 11/18/11 12/19/12 9/14/13
s off
f 2/2/14 14/6/15 15/8/16 16/9/17 3/3/18
f 9/26/19 12/28/20 17/29/21 5/25/22
f 12/35/23 11/36/24 15/37/25 14/38/26 17/39/27
f 17/5/28 14/6/29 2/2/30 1/1/31 5/7/32
f 18/30/33 16/31/34 15/32/35 11/33/36 10/34/37
s 1
f 19/27/38 7/24/9 6/23/8
s off
f 20/10/39 18/11/40 10/12/41 13/13/42
f 13/13/43 8/15/44 7/16/45 19/17/46 20/10/47
f 20/40/48 19/41/49 6/42/50 4/43/51 3/44/52 16/45/53 18/46/54
s 1
f 5/25/55 1/21/6 8/20/5 9/26/56
s 2
f 10/12/10 9/14/13 8/15/57 13/13/58
